<svg width="459" height="142" viewBox="0 0 459 142" fill="none" xmlns="http://www.w3.org/2000/svg">
<g clip-path="url(#clip0)">
<g clip-path="url(#clip1)">
<path d="M133.121 47.1064H127.012V65.0035H133.121V47.1064Z" fill="#036EB8"/>
</g>
</g>
<path d="M177.943 108.68H164.853V138.547H177.943V108.68Z" fill="#036EB8"/>
<path d="M177.943 85.4497H164.853V94.2992H177.943V85.4497Z" fill="#036EB8"/>
<path d="M177.943 96.5117H164.853V105.361H177.943V96.5117Z" fill="#036EB8"/>
<path d="M240.074 85.4497H231.224V98.5395H240.074V85.4497Z" fill="#036EB8"/>
<path d="M229.012 85.4502H220.162V98.54H229.012V85.4502Z" fill="#036EB8"/>
<path d="M54.4193 18.3418H0.953857V31.4316H54.4193V18.3418Z" fill="#036EB8"/>
<path d="M14.0437 18.5259H0.953857V71.6226H14.0437V18.5259Z" fill="#036EB8"/>
<path d="M448.589 18.3418H395.123V31.4316H448.589V18.3418Z" fill="#036EB8"/>
<path d="M448.589 58.3481H395.123V71.438H448.589V58.3481Z" fill="#036EB8"/>
<path d="M408.213 18.5259H395.123V71.6226H408.213V18.5259Z" fill="#036EB8"/>
<path d="M76.1742 18.5259H63.0844V71.6226H76.1742V18.5259Z" fill="#036EB8"/>
<path d="M138.12 45.0742H125.031V71.6226H138.12V45.0742Z" fill="#036EB8"/>
<path d="M262.197 45.0742H249.107V71.6226H262.197V45.0742Z" fill="#036EB8"/>
<path d="M262.197 38.437H235.649V51.5268H262.197V38.437Z" fill="#036EB8"/>
<path d="M116.181 58.3481H63.0844V71.438H116.181V58.3481Z" fill="#036EB8"/>
<path d="M178.127 58.3481H125.031V71.438H178.127V58.3481Z" fill="#036EB8"/>
<path d="M115.997 18.5259H102.907V71.6226H115.997V18.5259Z" fill="#036EB8"/>
<path d="M178.312 18.5259H165.222V71.6226H178.312V18.5259Z" fill="#036EB8"/>
<path d="M262.197 58.3481H209.101V71.438H262.197V58.3481Z" fill="#036EB8"/>
<path d="M262.197 18.3418H209.101V31.4316H262.197V18.3418Z" fill="#036EB8"/>
<path d="M222.006 18.5259H208.916V71.6226H222.006V18.5259Z" fill="#036EB8"/>
<path d="M324.143 18.3418H271.047V31.4316H324.143V18.3418Z" fill="#036EB8"/>
<path d="M324.143 38.437H271.047V51.5268H324.143V38.437Z" fill="#036EB8"/>
<path d="M283.952 18.5259H270.862V71.6226H283.952V18.5259Z" fill="#036EB8"/>
<path d="M324.143 18.5259H311.054V71.6226H324.143V18.5259Z" fill="#036EB8"/>
<path d="M386.274 18.3418H333.177V31.4316H386.274V18.3418Z" fill="#036EB8"/>
<path d="M366.178 18.5259H353.089V71.6226H366.178V18.5259Z" fill="#036EB8"/>
<path d="M137.936 85.2656H124.293V98.3554H137.936V85.2656Z" fill="#036EB8"/>
<path d="M137.936 101.858H124.293V114.948H137.936V101.858Z" fill="#036EB8"/>
<path d="M137.936 101.858H124.293V114.948H137.936V101.858Z" fill="#036EB8"/>
<path d="M177.943 125.457H124.846V138.547H177.943V125.457Z" fill="#036EB8"/>
<path d="M115.997 85.4497H63.0844V98.5395H115.997V85.4497Z" fill="#036EB8"/>
<path d="M115.997 85.4497H102.907V138.546H115.997V85.4497Z" fill="#036EB8"/>
<path fill-rule="evenodd" clip-rule="evenodd" d="M301.651 85.0811V98.3552L248.554 115.132V101.858L301.651 85.0811Z" fill="#036EB8"/>
<path d="M363.782 101.858H310.501V114.948H363.782V101.858Z" fill="#036EB8"/>
<path d="M323.59 85.4497H310.501V138.546H323.59V85.4497Z" fill="#036EB8"/>
<path d="M219.609 108.496H206.519V137.994H219.609V108.496Z" fill="#036EB8"/>
<path d="M284.137 101.858H271.047V138.547H284.137V101.858Z" fill="#036EB8"/>
<path d="M240.074 101.858H186.977V114.948H240.074V101.858Z" fill="#036EB8"/>
<path fill-rule="evenodd" clip-rule="evenodd" d="M427.756 44.8902L448.773 58.5331V31.4316L427.756 44.8902Z" fill="#C30D23"/>
<path fill-rule="evenodd" clip-rule="evenodd" d="M33.5863 44.8902L54.4194 58.5331V31.4316L33.5863 44.8902Z" fill="#C30D23"/>
<path d="M200.067 0.642578H186.977V14.2855H200.067V0.642578Z" fill="#036EB8"/>
<path d="M200.067 18.3418H186.977V115.133H200.067V18.3418Z" fill="#036EB8"/>
<path d="M200.067 85.4497H186.977V115.132H200.067V85.4497Z" fill="#036EB8"/>
<defs>
<clipPath id="clip0">
<rect width="457.833" height="140.988" fill="white" transform="translate(0.953857 0.642578)"/>
</clipPath>
<clipPath id="clip1">
<rect width="209" height="64.3607" fill="white" transform="translate(0.953857 0.642578)"/>
</clipPath>
</defs>
</svg>
