<svg width="458" height="142" viewBox="0 0 458 142" fill="none" xmlns="http://www.w3.org/2000/svg">
<g clip-path="url(#clip0)">
<g clip-path="url(#clip1)">
<path d="M132.197 47.3398H126.088V65.2369H132.197V47.3398Z" fill="#036EB8"/>
</g>
</g>
<path d="M177.02 108.913H163.93V138.78H177.02V108.913Z" fill="#036EB8"/>
<path d="M177.02 85.6833H163.93V94.5328H177.02V85.6833Z" fill="#036EB8"/>
<path d="M177.02 96.7451H163.93V105.595H177.02V96.7451Z" fill="#036EB8"/>
<path d="M239.15 85.6833H230.301V98.7732H239.15V85.6833Z" fill="#036EB8"/>
<path d="M228.088 85.6836H219.239V98.7734H228.088V85.6836Z" fill="#036EB8"/>
<path d="M53.4959 18.5752H0.0303955V31.665H53.4959V18.5752Z" fill="#036EB8"/>
<path d="M13.1202 18.7593H0.0303955V71.856H13.1202V18.7593Z" fill="#036EB8"/>
<path d="M447.665 18.5752H394.2V31.665H447.665V18.5752Z" fill="#036EB8"/>
<path d="M447.665 58.582H394.2V71.6719H447.665V58.582Z" fill="#036EB8"/>
<path d="M407.29 18.7593H394.2V71.856H407.29V18.7593Z" fill="#036EB8"/>
<path d="M75.2508 18.7593H62.161V71.856H75.2508V18.7593Z" fill="#036EB8"/>
<path d="M137.197 45.3079H124.107V71.8562H137.197V45.3079Z" fill="#036EB8"/>
<path d="M261.274 45.3079H248.184V71.8562H261.274V45.3079Z" fill="#036EB8"/>
<path d="M261.274 38.6707H234.725V51.7605H261.274V38.6707Z" fill="#036EB8"/>
<path d="M115.258 58.582H62.161V71.6719H115.258V58.582Z" fill="#036EB8"/>
<path d="M177.204 58.582H124.107V71.6719H177.204V58.582Z" fill="#036EB8"/>
<path d="M115.073 18.7593H101.984V71.856H115.073V18.7593Z" fill="#036EB8"/>
<path d="M177.388 18.7593H164.298V71.856H177.388V18.7593Z" fill="#036EB8"/>
<path d="M261.274 58.582H208.177V71.6719H261.274V58.582Z" fill="#036EB8"/>
<path d="M261.274 18.5752H208.177V31.665H261.274V18.5752Z" fill="#036EB8"/>
<path d="M221.083 18.7593H207.993V71.856H221.083V18.7593Z" fill="#036EB8"/>
<path d="M323.22 18.5752H270.123V31.665H323.22V18.5752Z" fill="#036EB8"/>
<path d="M323.22 38.6707H270.123V51.7605H323.22V38.6707Z" fill="#036EB8"/>
<path d="M283.029 18.7593H269.939V71.856H283.029V18.7593Z" fill="#036EB8"/>
<path d="M323.22 18.7593H310.13V71.856H323.22V18.7593Z" fill="#036EB8"/>
<path d="M385.351 18.5752H332.254V31.665H385.351V18.5752Z" fill="#036EB8"/>
<path d="M365.255 18.7593H352.165V71.856H365.255V18.7593Z" fill="#036EB8"/>
<path d="M137.013 85.4993H123.37V98.5891H137.013V85.4993Z" fill="#036EB8"/>
<path d="M137.013 102.092H123.37V115.182H137.013V102.092Z" fill="#036EB8"/>
<path d="M137.013 102.092H123.37V115.182H137.013V102.092Z" fill="#036EB8"/>
<path d="M177.02 125.691H123.923V138.781H177.02V125.691Z" fill="#036EB8"/>
<path d="M115.073 85.6833H62.161V98.7732H115.073V85.6833Z" fill="#036EB8"/>
<path d="M115.073 85.6833H101.984V138.78H115.073V85.6833Z" fill="#036EB8"/>
<path fill-rule="evenodd" clip-rule="evenodd" d="M300.728 85.3147V98.5889L247.631 115.366V102.092L300.728 85.3147Z" fill="#036EB8"/>
<path d="M362.858 102.092H309.577V115.182H362.858V102.092Z" fill="#036EB8"/>
<path d="M322.667 85.6833H309.577V138.78H322.667V85.6833Z" fill="#036EB8"/>
<path d="M218.686 108.729H205.596V138.227H218.686V108.729Z" fill="#036EB8"/>
<path d="M239.15 102.092H186.054V115.182H239.15V102.092Z" fill="#036EB8"/>
<path fill-rule="evenodd" clip-rule="evenodd" d="M426.832 45.1236L447.85 58.7665V31.665L426.832 45.1236Z" fill="#C30D23"/>
<path fill-rule="evenodd" clip-rule="evenodd" d="M32.6628 45.1236L53.4959 58.7665V31.665L32.6628 45.1236Z" fill="#C30D23"/>
<path d="M199.143 0.876221H186.054V14.5191H199.143V0.876221Z" fill="#036EB8"/>
<path d="M199.143 18.5752H186.054V115.366H199.143V18.5752Z" fill="#036EB8"/>
<path d="M199.143 85.6833H186.054V115.366H199.143V85.6833Z" fill="#036EB8"/>
<defs>
<clipPath id="clip0">
<rect width="457.833" height="140.988" fill="white" transform="translate(0.0303955 0.876221)"/>
</clipPath>
<clipPath id="clip1">
<rect width="209" height="64.3607" fill="white" transform="translate(0.0303955 0.876221)"/>
</clipPath>
</defs>
</svg>
